# xmcd
#
# Track frame offsets:
#	150
#	12536
#	28163
#	42337
#	54775
#	69581
#	82571
#	95880
#	117145
#	129834
#	141629
#	157288
#	175683
#	213826
#	230055
#	254494
#	267248
#	283020
#
# Disc length: 3996 seconds
#
# Revision: 1
# Processed by: cddbd v1.5.2PL0 Copyright (c) Steve Scherf et al.
# Submitted via: audiograbber 1.83.01
#
DISCID=050f9a12
DTITLE=Jason Allen - Live at Gruene Hall
DYEAR=2006
DGENRE=Country
TTITLE0=I Can Hear The Honky-Tonk
TTITLE1=Victoria's Secret
TTITLE2=Cryin' For Their Mamas
TTITLE3=Costin' To Stay In Austin
TTITLE4=Wouldn't It Be Nice
TTITLE5=Dame Tu Mano Bonita
TTITLE6=God Bless The Honky Tonk
TTITLE7=Goin' Fishin'
TTITLE8=Thanking The Band
TTITLE9=Your Heart Turned Left
TTITLE10=Lucky Arms
TTITLE11=John Boat Blues
TTITLE12=Long Haired Country Boy
TTITLE13=I Saw The Light
TTITLE14=Good Mornin' Baby
TTITLE15=Kickapoo Creek
TTITLE16=It's Your World
TTITLE17=Margarita Meltdown
EXTD=
EXTT0=
EXTT1=
EXTT2=
EXTT3=
EXTT4=
EXTT5=
EXTT6=
EXTT7=
EXTT8=
EXTT9=
EXTT10=
EXTT11=
EXTT12=
EXTT13=
EXTT14=
EXTT15=
EXTT16=
EXTT17=
PLAYORDER=
